PathFileType	4	(X/Y/Z)	..\data\2014015\dynamic\2014015_C4_04.trc
DataRate	CameraRate	NumFrames	NumMarkers	Units	OrigDataRate	OrigDataStartFrame	OrigNumFrames
100.000000	100.000000	4	52	mm	100.000000	166	190
Frame#	Time	L_IAS			L_IPS			R_IPS			R_IAS			L_FTC			L_FLE			L_FME			L_FAX			L_TTC			L_FAL			L_TAM			L_FCC			L_FM1			L_FM2			L_FM5			R_FTC			R_FLE			R_FME			R_FAX			R_TTC			R_FAL			R_TAM			R_FCC			R_FM1			R_FM2			R_FM5			CV7			TV10			SXS			SJN			L_SIA			L_SRS			L_SAA			L_SAE			L_HLE			L_HME			L_UOA			L_RSP			L_UHE			L_HM2			L_HM5			R_SIA			R_SRS			R_SAA			R_SAE			R_HLE			R_HME			R_UOA			R_RSP			R_UHE			R_HM2			R_HM5			
		X1	Y1	Z1	X2	Y2	Z2	X3	Y3	Z3	X4	Y4	Z4	X5	Y5	Z5	X6	Y6	Z6	X7	Y7	Z7	X8	Y8	Z8	X9	Y9	Z9	X10	Y10	Z10	X11	Y11	Z11	X12	Y12	Z12	X13	Y13	Z13	X14	Y14	Z14	X15	Y15	Z15	X16	Y16	Z16	X17	Y17	Z17	X18	Y18	Z18	X19	Y19	Z19	X20	Y20	Z20	X21	Y21	Z21	X22	Y22	Z22	X23	Y23	Z23	X24	Y24	Z24	X25	Y25	Z25	X26	Y26	Z26	X27	Y27	Z27	X28	Y28	Z28	X29	Y29	Z29	X30	Y30	Z30	X31	Y31	Z31	X32	Y32	Z32	X33	Y33	Z33	X34	Y34	Z34	X35	Y35	Z35	X36	Y36	Z36	X37	Y37	Z37	X38	Y38	Z38	X39	Y39	Z39	X40	Y40	Z40	X41	Y41	Z41	X42	Y42	Z42	X43	Y43	Z43	X44	Y44	Z44	X45	Y45	Z45	X46	Y46	Z46	X47	Y47	Z47	X48	Y48	Z48	X49	Y49	Z49	X50	Y50	Z50	X51	Y51	Z51	X52	Y52	Z52	

167	1.66	1447.392578125	835.5616455078127	-380.3501281738282	1230.576782226563	866.153747558594	-296.9391479492188	1225.631713867188	862.4344482421877	-195.199935913086	1451.843627929688	840.042907714844	-114.1769485473633	1367.161987304688	760.7481079101564	-433.5332031250001	1343.255981445313	412.0373840332032	-347.2662963867188	1341.775024414063	417.2456665039064	-207.2131958007813	1328.561767578125	358.3687744140626	-348.9599304199219	1380.971313476563	364.2835388183594	-292.9800109863282	1258.611572265625	66.27097320556642	-302.2670593261719	1272.810791015625	80.58535003662111	-213.6896972656251	1216.573364257813	29.30518531799317	-262.6723327636719	1392.729614257813	18.42611312866211	-211.147933959961	1413.031982421875	36.66207504272462	-264.4190063476563	1371.048828125	24.82544898986817	-326.0010375976563	1387.888305664063	755.8367309570314	-57.9484329223633	1522.471801757813	445.3314208984376	-77.93545532226564	1573.415771484375	428.5354614257814	-205.5205535888672	1513.70361328125	394.6467285156251	-75.75082397460939	1576.865478515625	385.7550048828126	-125.0980606079102	1390.278686523438	114.2864379882813	-135.4589538574219	1437.869140625	128.6696166992188	-212.5313415527344	1352.5341796875	89.47923278808595	-188.8827056884766	1524.58740234375	43.07902908325196	-198.8963012695313	1528.623779296875	52.90801239013673	-145.9555969238282	1474.891357421875	49.23227691650392	-107.0160293579102	1305.32861328125	1320.252319335938	-235.4260864257813	1222.722045898438	1128.311767578125	-252.3314514160157	1464.131591796875	1024.710815429688	-239.8627471923829	1423.333618164063	1232.125854492188	-236.646224975586	1225.7265625	1157.017822265625	-326.5791320800782	1275.701904296875	1273.17431640625	-318.5091247558594	1318.280639648438	1274.806884765625	-381.0412902832032	1381.136108398438	1258.488403320313	-416.0883178710939	1352.833129882813	994.2661743164065	-486.204559326172	1317.21630859375	970.0056762695315	-406.5720520019532	1313.89208984375	967.317565917969	-456.2695617675782	1453.059814453125	798.263366699219	-465.4334106445314	1392.012939453125	785.9298095703127	-514.9837646484376	1495.035034179688	719.2902832031251	-489.6951904296876	1407.121948242188	707.4548339843751	-523.8727416992189	1223.028930664063	1151.522338867188	-144.4784545898438	1273.133178710938	1268.7119140625	-151.8479766845703	1305.19921875	1263.785400390625	-89.46460723876955	1381.781127929688	1249.537719726563	-60.79251098632814	1341.256958007813	981.3189697265627	10.84124565124512	1285.759521484375	975.6562500000002	-74.84056091308595	1291.9423828125	965.8548583984377	-16.98874473571778	1417.577758789063	781.5654296875002	-21.50232696533203	1361.986572265625	774.973083496094	33.35664749145509	1434.37548828125	684.6857299804689	-4.961029529571534	1345.54833984375	711.0668334960939	37.91243362426759	
168	1.67	1455.785400390625	834.0286254882815	-380.2652282714844	1239.197998046875	865.2319335937502	-295.7241821289063	1234.5556640625	861.2136840820315	-193.7831115722657	1461.393432617188	839.4219360351565	-114.5964736938477	1375.138305664063	760.1301269531251	-432.9908142089845	1347.050048828125	411.8438415527345	-346.6714172363282	1346.38330078125	416.9430541992189	-206.7384948730469	1331.766723632813	358.3437500000001	-348.4866638183594	1384.382690429688	363.6538085937501	-292.7457275390626	1258.938232421875	66.76663970947267	-301.7048339843751	1273.181640625	81.13108062744142	-213.2448425292969	1216.433715820313	30.26402473449708	-262.1730651855469	1392.734252929688	18.27652359008789	-211.0679626464844	1412.998168945313	36.66270828247071	-264.3527221679688	1370.640014648438	24.85580635070801	-325.7735900878907	1398.333984375	755.4398803710939	-57.38157653808595	1533.619873046875	444.8887939453126	-80.16810607910158	1583.955444335938	429.148406982422	-207.8599548339844	1527.086791992188	393.5980224609376	-77.89997863769533	1590.380859375	387.1882629394532	-127.3553237915039	1420.6552734375	105.6433181762696	-134.0107879638672	1467.564086914063	122.4467239379883	-211.2774200439454	1384.868530273438	78.04124450683595	-187.2574768066407	1559.522216796875	42.6499252319336	-196.3313903808594	1562.513549804688	53.28764724731447	-143.550537109375	1509.227172851563	46.47296524047852	-104.7570953369141	1314.689575195313	1319.49267578125	-235.4241485595704	1231.70654296875	1127.907470703125	-252.4972229003907	1472.944580078125	1023.68115234375	-239.6741027832032	1432.608764648438	1231.261596679688	-236.3375701904297	1234.972290039063	1156.6513671875	-326.7899780273438	1285.272094726563	1272.6220703125	-318.6846313476563	1328.079956054688	1274.155883789063	-381.0904235839844	1391.083618164063	1257.696411132813	-415.8886108398439	1363.25732421875	993.5273437500002	-486.4444274902345	1326.971435546875	969.028503417969	-407.1429748535157	1324.4560546875	966.1414794921877	-456.7696533203126	1464.922119140625	798.3321533203127	-464.4910888671876	1404.720825195313	785.4213867187502	-514.7195434570314	1507.845458984375	719.6569824218751	-487.9600524902345	1420.415893554688	707.1070556640626	-523.2428588867189	1231.825927734375	1150.93359375	-144.6428527832032	1282.22119140625	1267.993408203125	-151.9612731933594	1314.0654296875	1262.90478515625	-89.47912597656251	1390.611694335938	1248.397338867188	-60.59823989868165	1349.313842773438	980.4743652343752	11.08646392822266	1294.276489257813	974.6400146484377	-74.89401245117189	1300.115478515625	965.038757324219	-17.02044868469239	1425.259765625	780.462829589844	-20.30453681945801	1369.452880859375	774.1389160156252	34.24902343750001	1441.811279296875	683.5451660156251	-3.351302862167359	1352.866577148438	710.3060302734376	39.02619552612305	
169	1.68	1464.209228515625	832.5532226562502	-380.1802062988282	1247.7802734375	864.2668457031252	-294.3425292968751	1243.5869140625	859.9749755859377	-192.2854614257813	1470.948974609375	838.5628662109377	-114.7554168701172	1382.966064453125	759.5460205078126	-432.4160156250001	1350.813598632813	411.7193298339845	-346.1442565917969	1350.962890625	416.7462768554689	-206.3049621582032	1334.933349609375	358.3812561035157	-348.0649719238282	1387.784790039063	363.0666809082032	-292.5593872070313	1259.281372070313	67.36629486083986	-301.1538391113282	1273.625610351563	81.74131774902345	-212.8089447021485	1216.333251953125	31.33480072021485	-261.6582031250001	1392.717529296875	18.12479782104493	-210.9910430908204	1412.950439453125	36.66322326660157	-264.2882080078126	1370.22021484375	24.87447166442872	-325.5647888183594	1408.650024414063	754.7916870117189	-56.81783294677736	1543.97900390625	443.9712524414064	-82.42905426025392	1593.647094726563	429.2021484375001	-210.3549346923829	1539.611083984375	392.1742553710939	-80.11072540283205	1603.0927734375	388.2321777343751	-129.6629791259766	1451.21533203125	97.71991729736331	-132.894760131836	1497.497436523438	116.9526138305664	-210.2322540283204	1417.708129882813	67.41169738769533	-186.0331726074219	1594.22509765625	43.18026351928712	-193.9186706542969	1596.062622070313	54.52079010009767	-141.2737731933594	1543.357666015625	44.56438064575196	-102.7465133666992	1324.030395507813	1318.6591796875	-235.4170837402344	1240.7041015625	1127.42138671875	-252.5967407226563	1481.77685546875	1022.528015136719	-239.4977111816407	1441.892578125	1230.31494140625	-236.0328674316407	1244.218383789063	1156.215209960938	-326.9413452148438	1294.841918945313	1271.999389648438	-318.8575744628907	1337.882690429688	1273.427856445313	-381.1354064941407	1401.031860351563	1256.8125	-415.6819763183595	1373.761108398438	992.6774902343752	-486.615203857422	1336.772216796875	967.9572753906252	-407.6513977050782	1335.053588867188	964.8919677734377	-457.197967529297	1476.623168945313	798.2146606445315	-463.4673461914064	1417.2841796875	784.8178710937502	-514.4021606445314	1520.42236328125	719.8240356445314	-486.1643066406251	1433.506591796875	706.6748657226564	-522.6070556640626	1240.635009765625	1150.250732421875	-144.7475280761719	1291.301879882813	1267.197387695313	-152.0586242675782	1322.933959960938	1261.941162109375	-89.48055267333986	1399.454223632813	1247.17041015625	-60.40219879150392	1357.303466796875	979.5405883789065	11.31869029998779	1302.796264648438	973.5430297851565	-74.99890136718751	1308.246459960938	964.1376953125002	-17.09585952758789	1432.884155273438	779.2615966796877	-19.18971824645996	1376.91015625	773.2180786132815	35.08130264282227	1449.20166015625	682.3061523437501	-1.852298378944397	1360.187622070313	709.4722290039064	40.11288833618165	
170	1.69	1472.644653320313	831.1978759765627	-380.0915527343751	1256.336181640625	863.263122558594	-292.8170471191407	1252.720092773438	858.7351684570315	-190.7428894042969	1480.492919921875	837.5029907226565	-114.6364898681641	1390.6435546875	759.0070800781251	-431.8208618164064	1354.599365234375	411.6587524414064	-345.6896057128907	1355.536010742188	416.6481018066407	-205.9192047119141	1338.105346679688	358.4788818359376	-347.6968994140626	1391.219848632813	362.5185241699219	-292.4179382324219	1259.654296875	68.08065032958986	-300.6361389160157	1274.152221679688	82.41611480712892	-212.4023437500001	1216.289184570313	32.52395248413087	-261.1490478515626	1392.684448242188	17.97734451293946	-210.9225158691407	1412.8935546875	36.66452407836915	-264.2287902832032	1369.80859375	24.88249588012696	-325.3812866210938	1418.8115234375	753.8936767578126	-56.26821517944337	1553.583251953125	442.5950317382814	-84.69116210937501	1602.542114257813	428.7147216796876	-212.9901428222657	1551.316040039063	390.4035034179689	-82.35208892822267	1615.026000976563	388.9098205566407	-131.9906768798828	1481.78076171875	90.63201904296876	-132.1080627441407	1527.456176757813	112.3143920898438	-209.3915100097657	1450.802001953125	57.7655372619629	-185.1957092285157	1628.4443359375	44.74626541137696	-191.7602996826172	1629.069213867188	56.64994049072267	-139.231689453125	1577.086059570313	43.55208969116212	-101.0484008789063	1333.357299804688	1317.758056640625	-235.4017791748047	1249.726684570313	1126.853759765625	-252.6332397460938	1490.646118164063	1021.273559570313	-239.3282775878907	1451.19580078125	1229.293579101563	-235.7303161621094	1253.480346679688	1155.71044921875	-327.0357055664063	1304.419189453125	1271.309692382813	-319.0228576660157	1347.695678710938	1272.631103515625	-381.1703796386719	1410.98583984375	1255.851928710938	-415.4656372070314	1384.348022460938	991.727478027344	-486.7083740234376	1346.6533203125	966.8079223632815	-408.080047607422	1345.683715820313	963.5876464843752	-457.5434875488282	1488.177490234375	797.922058105469	-462.3680114746095	1429.69091796875	784.1235351562502	-514.0178222656251	1532.776123046875	719.8008422851564	-484.331512451172	1446.392822265625	706.1549682617189	-521.9550781250001	1249.470947265625	1149.477905273438	-144.7956848144532	1300.38671875	1266.327514648438	-152.1385498046875	1331.817626953125	1260.9033203125	-89.46752166748048	1408.314331054688	1245.875122070313	-60.20167160034181	1365.240844726563	978.529724121094	11.54490852355957	1311.326293945313	972.3809814453127	-75.14233398437501	1316.348266601563	963.1638793945315	-17.20334434509278	1440.477783203125	777.9779052734377	-18.16388320922852	1384.374145507813	772.221130371094	35.85092926025391	1456.564331054688	680.9838256835939	-0.4783915877342225	1367.523315429688	708.5750122070314	41.15662002563477	
